<?xml version="1.0" standalone="no"?><!DOCTYPE svg PUBLIC "-//W3C//DTD SVG 1.1//EN" "http://www.w3.org/Graphics/SVG/1.1/DTD/svg11.dtd"><svg t="1770368303015" class="icon" viewBox="0 0 1085 1024" version="1.1" xmlns="http://www.w3.org/2000/svg" p-id="5250" xmlns:xlink="http://www.w3.org/1999/xlink" width="211.9140625" height="200"><path d="M237.20448 474.97728l-25.14944-2.85184C91.45344 459.008 0 358.08256 0 237.20448 0 106.62912 106.88512 0 237.7728 0c109.74208 0 204.6208 74.69568 230.912 181.89312l6.29248 25.66144-25.72288 7.98208c-102.31296 33.07008-181.18656 123.1616-206.336 234.34752l-5.71392 25.088z m0.56832-417.95584c-99.45088 0-180.61824 80.96768-180.61824 180.18304 0 83.2512 57.15968 154.5216 137.18016 173.90592C226.91328 301.63456 305.21856 213.25312 405.8112 171.0592c-27.43808-68.42368-93.16864-114.03776-168.0384-114.03776z" fill="#000000" p-id="5251"></path><path d="M650.3168 163.09248l0.06656-0.18432c105.61536 37.67808 188.57984 124.87168 225.28 235.96544l1.37216-0.06144 5.71904 22.3232c9.728 34.92864 14.30528 70.42048 14.30528 105.91744-0.57344 204.3904-233.97376 496.9472-361.54368 496.9472-130.432 0-360.97024-287.9744-360.97024-497.51552 0-29.19936 3.4304-58.97216 10.29632-89.31328l56.064 12.5952c-5.72416 25.75872-8.58112 51.52256-8.58112 76.71808 0 184.35072 210.51904 440.2688 303.76448 440.2688 81.2288 0 303.75936-249.6256 303.75936-440.2688 0-30.2592-3.97824-60.5184-11.94496-90.7776l-0.48128 0.128c-27.84256-102.6816-100.34176-184.36608-194.43712-218.50624l-0.2048 0.5888c-60.01152-21.4016-124.02176-21.97504-183.45984-2.31424l-17.7152-54.9376c70.99904-22.99392 147.08224-22.56384 218.71104 2.42688z m-220.4928-3.35872l17.64864 54.2208C345.5744 247.06048 267.01824 337.23392 241.9712 448.52736l-55.78752-12.55424C215.7824 304.70144 309.14048 199.1168 429.824 159.73376z" fill="#000000" p-id="5252"></path><path d="M844.16512 474.97728l-5.7088-25.088c-25.12384-111.19104-103.92064-201.28256-206.1312-234.35264l-25.11872-7.9872 6.28224-25.65632C639.1808 74.69568 733.96224 0 843.59168 0c130.75968 0 237.53216 106.62912 237.53216 237.20448 0 120.8832-90.78784 221.80352-211.83488 234.92096l-25.12384 2.85184zM676.29568 171.0592c100.49536 42.19392 178.14528 130.57536 210.69312 240.0512 79.36512-19.38432 137.0368-90.65984 137.0368-173.90592 0-99.21536-81.08032-180.18304-180.4288-180.18304-74.8032 0-140.46208 45.61408-167.30112 114.03776zM629.42208 527.872a28.56448 28.56448 0 1 0 57.12384 0 28.56448 28.56448 0 0 0-57.12384 0zM401.98144 527.872a28.56448 28.56448 0 1 0 57.12384 0 28.56448 28.56448 0 0 0-57.12384 0zM604.928 786.75456H478.86336c-12.61056 0-22.92224-10.28096-22.92224-22.85056v-10.8544c0-12.56448 10.31168-22.84544 22.92224-22.84544h125.50144c12.60544 0 22.92224 10.28096 22.92224 22.85056v10.8544c0.57344 12.56448-9.74336 22.84544-22.3488 22.84544z" fill="#000000" p-id="5253"></path><path d="M512.28672 971.62752v-180.87424c0-12.51328 10.28096-22.75328 22.85056-22.75328h10.8544c12.56448 0 22.84544 10.24 22.84544 22.75328v180.87424c0 12.51328-10.28096 22.75328-22.85056 22.75328h-10.8544c-12.56448 0-22.84544-10.24-22.84544-22.75328z" fill="#000000" p-id="5254"></path></svg>