<?xml version="1.0" standalone="no"?><!DOCTYPE svg PUBLIC "-//W3C//DTD SVG 1.1//EN" "http://www.w3.org/Graphics/SVG/1.1/DTD/svg11.dtd"><svg t="1770473878902" class="icon" viewBox="0 0 1024 1024" version="1.1" xmlns="http://www.w3.org/2000/svg" p-id="15540" xmlns:xlink="http://www.w3.org/1999/xlink" width="200" height="200"><path d="M519.1 338.4c38.7 0 69.8-31.5 69.8-69.7 0.4-38.6-30.9-69.6-69.4-69.8-38.1-0.2-69.6 30.8-70.1 68.9-0.6 39.1 31.1 70.6 69.7 70.6zM678.6 514.5l-66.4-147.4c-2.4-5.2-6.3-9.4-11.1-12l-7.7-6.2c-1.5-0.3-3-3.9-4.6-3.9H564.6l-43.8 53.8-45.5-53.8h-30.7c-10.3 0-19.7 9.5-23.9 18.9l-72.1 161c-1.5 3.3-0.6 8.1 2.2 10.4l16.6 14c3.6 3 9 2.4 11.7-1.4l52.5-74.9 4.7 103.4-9.3 238.8c-0.3 9.1 6.9 16.8 16 16.8h30.8c8.5 0 15.5-6.7 16-15.2l11.7-187.3c0.5-8.3 7.4-14.9 15.7-15.1 7.6-0.2 14.1 6.1 14.5 13.7l9.6 188.5c0.4 8.5 7.5 15.4 16 15.4H595.5c7.2 0 14.5-5.3 14.5-12.5v-0.5c0-1.2 2.6-2.7 2.6-3.9L601 576.5v-0.8l2.6-114.8 44.1 76.9c2.5 4.3 7.5 5.2 11.3 2l18-15.8c2.7-2.4 3.1-6.3 1.6-9.5z" p-id="15541"></path></svg>