<?xml version="1.0" standalone="no"?><!DOCTYPE svg PUBLIC "-//W3C//DTD SVG 1.1//EN" "http://www.w3.org/Graphics/SVG/1.1/DTD/svg11.dtd"><svg t="1770473854055" class="icon" viewBox="0 0 1024 1024" version="1.1" xmlns="http://www.w3.org/2000/svg" p-id="15394" xmlns:xlink="http://www.w3.org/1999/xlink" width="200" height="200"><path d="M508.290586 141.090909l26.582626 4.945455 21.635879 12.053979 14.524768 22.255192 4.636444 27.199354-4.636444 22.255192-14.524768 22.253899-21.635879 14.836363-26.582626 2.473374-21.635879-2.473374-21.637172-14.836363-12.053979-22.253899-4.945455-22.255192 4.945455-27.199354 12.053979-22.255192 21.637172-12.053979zM531.163798 298.727434h-47.909495l-16.690424 4.636445-16.691717 4.636444-30.908768 16.690424-21.635879 25.963314-16.690424 30.599757-12.055273 33.382142-9.581899 35.236202-4.636444 38.018585 4.636444 33.074425 4.946748 14.21705 4.635151 7.108525 12.055273 9.272889h21.635879l9.581899-9.272889 7.108525-7.108525v-73.254788l4.636444-30.908767 14.218344-28.436687V693.744485l-4.636445 153.928404v16.381414l7.108526 9.581899 14.218343 9.272889h26.582626l7.108526-9.272889 9.581899-9.581899 4.636444-16.381414 4.944162-120.855273v-118.380606h11.744969v118.380606l4.946748 120.546263 4.635151 16.381414 7.108526 9.581899 9.584484 9.581899h26.272324l12.053979-9.581899 9.580607-9.581899v-16.381414l-4.944162-153.619394V397.945535l12.052687 28.436687 4.636444 30.599758 4.945455 35.545212-4.945455 28.43798v14.21705l9.581899 7.108525 9.584485 9.272889h21.635879l11.74497-9.272889 9.581899-7.108525 2.473373-14.21705v-33.074425l-2.473373-38.018585-9.581899-35.236202-11.74497-33.382142-19.163798-30.599757-26.274909-25.963314-12.052687-9.581899-16.690424-7.108525-16.690425-4.636444z" p-id="15395"></path></svg>