<?xml version="1.0" standalone="no"?><!DOCTYPE svg PUBLIC "-//W3C//DTD SVG 1.1//EN" "http://www.w3.org/Graphics/SVG/1.1/DTD/svg11.dtd"><svg t="1770473908537" class="icon" viewBox="0 0 1024 1024" version="1.1" xmlns="http://www.w3.org/2000/svg" p-id="17370" xmlns:xlink="http://www.w3.org/1999/xlink" width="200" height="200"><path d="M563.862 287c64.01 0 116.703 47.974 116.703 106.293v218.664c0 46.552-36.853 87.866-84.375 101.12V943.51c0 10.344-6.983 18.491-15.905 18.491H443.28c-8.922 0-15.84-8.082-15.84-18.491V713.853C377.267 701.246 343 659.931 343 612.021V393.293C343 334.973 395.047 287 459.767 287h104.095zM511.814 62c62.07 0.13 112.306 50.431 112.5 112.5 0.071 62.061-50.181 112.428-112.242 112.5-62.318-0.178-112.582-50.442-112.759-112.5 0.131-62.07 50.433-112.37 112.501-112.5z" fill="#000000" p-id="17371"></path></svg>