<?xml version="1.0" standalone="no"?><!DOCTYPE svg PUBLIC "-//W3C//DTD SVG 1.1//EN" "http://www.w3.org/Graphics/SVG/1.1/DTD/svg11.dtd"><svg t="1770480823730" class="icon" viewBox="0 0 1024 1024" version="1.1" xmlns="http://www.w3.org/2000/svg" p-id="25019" xmlns:xlink="http://www.w3.org/1999/xlink" width="200" height="200"><path d="M511.62 303.79c57.35 0 103.85-46.49 103.85-103.85 0-57.35-46.49-103.85-103.85-103.85-57.35 0-103.85 46.5-103.85 103.85 0 57.36 46.5 103.85 103.85 103.85z m131.89 98.66c-2.6-26.53-24.97-46.71-51.63-46.58h-28.34c-6.9-0.04-13.52 2.69-18.4 7.57l-33.53 33.53-33.53-33.83c-4.88-4.88-11.5-7.6-18.4-7.56h-28.34c-26.45-0.16-48.74 19.7-51.63 45.99l-23.59 184.11a25.95 25.95 0 0 0 6.06 20.69 25.96 25.96 0 0 0 19.61 8.98h28.04l21.81 264.67c2.46 26.64 24.87 47 51.63 46.88h56.82c26.81-0.04 49.18-20.48 51.63-47.18l21.66-264.37h27.89c7.5-0.01 14.64-3.26 19.58-8.9a25.654 25.654 0 0 0 6.23-20.77l-23.57-183.23z m127.59-98.66c57.35 0 103.85-46.49 103.85-103.85 0-57.35-46.49-103.85-103.85-103.85-57.35 0-103.85 46.5-103.85 103.85-0.01 57.36 46.49 103.85 103.85 103.85z m0 0" p-id="25020"></path><path d="M148.3 200.09c0 37.1 19.79 71.39 51.93 89.94a103.855 103.855 0 0 0 103.85 0c32.13-18.55 51.92-52.84 51.92-89.94 0-57.35-46.5-103.85-103.85-103.85-57.36 0-103.85 46.49-103.85 103.85z m0 0M927.02 585.67L902.99 402.6c-2.53-26.53-24.83-46.78-51.48-46.73h-28.34c-6.9-0.04-13.52 2.69-18.39 7.57l-33.53 33.53-33.68-33.83a25.665 25.665 0 0 0-18.25-7.27h-28.49c-3.11 0.24-6.19 0.79-9.2 1.63a102.74 102.74 0 0 1 13.5 39.02l24.18 182.92a77.46 77.46 0 0 1-18.99 61.57 75.087 75.087 0 0 1-26.4 18.84l17.21 168.24c2.6 26.55 24.95 46.78 51.63 46.73h56.82c26.83 0.03 49.24-20.45 51.63-47.18l21.66-212.3h28.04a26.118 26.118 0 0 0 26.11-29.67z m-622.36-6.08l23.59-184.41a94.224 94.224 0 0 1 12.91-37.68c-2.85-0.86-5.79-1.4-8.75-1.63h-28.49c-6.9-0.04-13.52 2.69-18.4 7.57L252 396.96l-33.38-33.83a25.861 25.861 0 0 0-18.54-7.27h-28.19c-26.48-0.23-48.81 19.66-51.63 45.99L96.22 585.67c-0.98 7.36 1.3 14.78 6.23 20.33a25.85 25.85 0 0 0 19.44 8.9h28.49l21.66 213.18c2.6 26.55 24.95 46.78 51.63 46.73h56.97c26.81-0.04 49.18-20.48 51.63-47.18l17.21-167.79a80.534 80.534 0 0 1-26.11-18.54 77.665 77.665 0 0 1-18.71-61.71z m0 0" p-id="25021"></path></svg>